<svg width="200px" height="200px" viewBox="0 0 200 200" version="1.1" xmlns="http://www.w3.org/2000/svg">
  <g stroke="none" stroke-width="1" fill="none" fill-rule="evenodd">
    <circle fill="#000000" opacity="0.15" cx="100" cy="192" r="80" style="filter: blur(5px);"></circle>
    
    <path d="M 143.4,172.9 A 80,80 0 0 1 27.1,143.4 L 15,160 L 40.5,153.5 A 60,60 0 0 0 140.5,159.5 Z" fill="#F1993C"></path>
    
    <path d="M 56.6,27.1 A 80,80 0 0 1 172.9,56.6 L 185,40 L 160.5,46.5 A 60,60 0 0 0 59.5,40.5 Z" fill="#7AC04E"></path>
    
    <path d="M 172.9,56.6 A 80,80 0 0 1 143.4,172.9 L 160,185 L 153.5,160.5 A 60,60 0 0 0 159.5,59.5 Z" fill="#3FA9D8"></path>
    
    <g fill="white">
      <path d="M 68,74 C 74.6,67.4 81.3,69.1 83.3,75.8 C 81.3,82.5 74.6,84.1 68,77.5 Z M 76.6,68.3 C 76,74.2 72.5,79.5 72.5,79.5" transform="translate(-20, -25)"></path>
      <path d="M 148.4,85.5 L 147.5,82.3 C 146.2,81.9 145,81.2 143.9,80.4 L 141.1,81.8 L 138.6,77.5 L 141.2,75.8 C 141,74.7 140.8,73.6 140.8,72.5 C 140.8,71.4 141,70.3 141.2,69.2 L 138.6,67.5 L 141.1,63.2 L 143.9,64.6 C 145,63.8 146.2,63.1 147.5,62.7 L 148.4,59.5 L 153.6,59.5 L 154.5,62.7 C 155.8,63.1 157,63.8 158.1,64.6 L 160.9,63.2 L 163.4,67.5 L 160.8,69.2 C 161,70.3 161.2,71.4 161.2,72.5 C 161.2,73.6 161,74.7 160.8,75.8 L 163.4,77.5 L 160.9,81.8 L 158.1,80.4 C 157,81.2 155.8,81.9 154.5,82.3 L 153.6,85.5 L 148.4,85.5 Z M 151,79.5 C 154.9,79.5 158,76.4 158,72.5 C 158,68.6 154.9,65.5 151,65.5 C 147.1,65.5 144,68.6 144,72.5 C 144,76.4 147.1,79.5 151,79.5 Z"></path>
      <g transform="translate(88, 128)">
        <path d="M 12,20 L 28,20 L 28,32 L 12,32 Z M 15,19 C 15,11.3 25,11.3 25,19" stroke="white" stroke-width="2.5" stroke-linecap="round"></path>
        <path d="M 12,20 L 28,20 L 28,32 L 12,32 Z"></path>
      </g>
    </g>
  </g>
</svg>